<?xml version="1.0" encoding="UTF-8" standalone="no"?>
<!-- Created with Inkscape (http://www.inkscape.org/) -->

<svg
   xmlns:osb="http://www.openswatchbook.org/uri/2009/osb"
   xmlns:dc="http://purl.org/dc/elements/1.1/"
   xmlns:cc="http://creativecommons.org/ns#"
   xmlns:rdf="http://www.w3.org/1999/02/22-rdf-syntax-ns#"
   xmlns:svg="http://www.w3.org/2000/svg"
   xmlns="http://www.w3.org/2000/svg"
   xmlns:sodipodi="http://sodipodi.sourceforge.net/DTD/sodipodi-0.dtd"
   xmlns:inkscape="http://www.inkscape.org/namespaces/inkscape"
   width="210mm"
   height="297mm"
   viewBox="0 0 210 297"
   version="1.1"
   id="svg8"
   inkscape:version="0.92.3 (2405546, 2018-03-11)"
   sodipodi:docname="next.svg">
  <defs
     id="defs2">
    <linearGradient
       id="linearGradient6048"
       osb:paint="solid">
      <stop
         style="stop-color:#000000;stop-opacity:1;"
         offset="0"
         id="stop6046" />
    </linearGradient>
  </defs>
  <sodipodi:namedview
     id="base"
     pagecolor="#ffffff"
     bordercolor="#666666"
     borderopacity="1.0"
     inkscape:pageopacity="0.0"
     inkscape:pageshadow="2"
     inkscape:zoom="1.4142136"
     inkscape:cx="372.99926"
     inkscape:cy="650.26612"
     inkscape:document-units="mm"
     inkscape:current-layer="layer1"
     showgrid="false"
     showguides="true"
     inkscape:guide-bbox="true"
     inkscape:window-width="1920"
     inkscape:window-height="1005"
     inkscape:window-x="1591"
     inkscape:window-y="-9"
     inkscape:window-maximized="1">
    <sodipodi:guide
       position="65.015213,157.32"
       orientation="1,0"
       id="guide3721"
       inkscape:locked="false" />
    <sodipodi:guide
       position="47.624998,220.7381"
       orientation="1,0"
       id="guide3723"
       inkscape:locked="false" />
    <sodipodi:guide
       position="-89.802562,175.06154"
       orientation="0,1"
       id="guide3725"
       inkscape:locked="false" />
    <sodipodi:guide
       position="74.033659,125.08214"
       orientation="0,1"
       id="guide3727"
       inkscape:locked="false" />
    <sodipodi:guide
       position="-92.207987,225.04094"
       orientation="0,1"
       id="guide3729"
       inkscape:locked="false" />
  </sodipodi:namedview>
  <metadata
     id="metadata5">
    <rdf:RDF>
      <cc:Work
         rdf:about="">
        <dc:format>image/svg+xml</dc:format>
        <dc:type
           rdf:resource="http://purl.org/dc/dcmitype/StillImage" />
        <dc:title></dc:title>
      </cc:Work>
    </rdf:RDF>
  </metadata>
  <g
     inkscape:label="Layer 1"
     inkscape:groupmode="layer"
     id="layer1">
    <path
       style="fill:none;fill-rule:evenodd;stroke:#000000;stroke-width:0.20286457px;stroke-linecap:butt;stroke-linejoin:miter;stroke-opacity:1"
       d="m 23.677648,71.959061 85.583632,49.979399 -85.583632,49.9794 v -49.9794 z"
       id="path3719"
       inkscape:connector-curvature="0"
       sodipodi:nodetypes="ccccc" />
    <path
       style="fill:#000000;fill-opacity:1;stroke-width:0.03340869"
       d=""
       id="path4540"
       inkscape:connector-curvature="0" />
    <path
       style="fill:#000000;fill-opacity:1;stroke-width:0.03340869"
       d=""
       id="path4542"
       inkscape:connector-curvature="0" />
    <path
       style="fill:#000000;fill-opacity:1;stroke-width:0.03340869"
       d=""
       id="path4544"
       inkscape:connector-curvature="0" />
    <path
       style="fill:#000000;fill-opacity:1;stroke-width:0.03340869"
       d=""
       id="path4548"
       inkscape:connector-curvature="0" />
    <path
       style="fill:#000000;fill-opacity:1;stroke-width:0.04724703"
       d=""
       id="path4554"
       inkscape:connector-curvature="0" />
    <path
       style="fill:#000000;fill-opacity:1;stroke-width:0.04724703"
       d=""
       id="path4556"
       inkscape:connector-curvature="0" />
    <path
       style="fill:#000000;fill-opacity:1;stroke-width:0.00208804"
       d="m 77.432119,103.59719 -0.970005,-0.56634 0.01111,-5.2e-4 0.01111,-5.3e-4 0.177967,0.10319 c 0.839798,0.48694 1.340871,0.77313 1.602012,0.915 0.07578,0.0412 0.172196,0.0901 0.194188,0.0985 0.01614,0.006 0.0182,0.006 0.06212,0.008 0.02516,7.9e-4 0.04537,7.9e-4 0.04532,-2.7e-4 -1.43e-4,-0.003 -0.06516,-0.043 -0.146066,-0.0906 -0.115321,-0.0678 -0.73456,-0.43017 -1.270354,-0.74334 l -0.494647,-0.28911 0.0118,-5.3e-4 0.01177,-5.3e-4 0.966454,0.5644 0.966457,0.56439 -0.104204,5.3e-4 c -0.06815,2.7e-4 -0.103762,0.001 -0.102925,0.003 7.93e-4,0.001 5.29e-4,0.002 -5.3e-4,0.002 -0.0011,-3e-5 -0.438189,-0.2549 -0.971693,-0.56638 z"
       id="path4572"
       inkscape:connector-curvature="0" />
    <path
       style="fill:#000000;fill-opacity:1;stroke-width:0.00103353"
       d="m 79.159224,104.60632 c -0.414393,-0.24198 -0.753594,-0.44032 -0.753777,-0.44076 -0.0011,-0.003 0.0013,-0.002 0.0081,0.002 0.01595,0.01 0.284006,0.16664 1.026832,0.60033 0.259778,0.15166 0.472487,0.27589 0.472688,0.27606 0.0085,0.007 -0.128105,-0.0722 -0.753813,-0.43758 z"
       id="path4574"
       inkscape:connector-curvature="0" />
    <path
       style="fill:none;fill-rule:evenodd;stroke:#000000;stroke-width:0.20286459px;stroke-linecap:butt;stroke-linejoin:miter;stroke-opacity:1"
       d="m 109.35934,71.959061 85.58364,49.979399 -85.58364,49.9794 v -49.9794 z"
       id="path3719-6"
       inkscape:connector-curvature="0"
       sodipodi:nodetypes="ccccc" />
    <path
       style="fill:#000000;fill-opacity:1;stroke-width:0.5"
       d="m 90.180648,460.89834 c 0,-103.13157 0.08267,-187.51194 0.183723,-187.51194 0.384937,0 198.056849,115.5786 198.305099,115.94883 0.35828,0.53431 9.01118,5.5973 9.01118,5.27263 0,-0.14323 0.49921,0.20467 1.10935,0.7731 0.61014,0.56843 1.69065,1.19595 2.40113,1.39448 1.39311,0.38927 109.99371,63.69334 109.98316,64.10997 -0.006,0.22864 -315.405327,184.58086 -319.310049,186.63793 l -1.683593,0.88695 z"
       id="path6103"
       inkscape:connector-curvature="0"
       transform="scale(0.26458333)" />
    <path
       style="fill:#000000;fill-opacity:1;stroke-width:0.5"
       d="M 414.18065,460.8864 V 273.30385 l 2.45138,1.41628 c 26.59725,15.36639 318.51389,185.98936 318.50947,186.16627 -0.004,0.17521 -263.06598,153.9253 -318.52468,186.16627 l -2.43617,1.41627 z"
       id="path6105"
       inkscape:connector-curvature="0"
       transform="scale(0.26458333)" />
  </g>
</svg>
