<?xml version="1.0" encoding="UTF-8" standalone="no"?>
<!-- Created with Inkscape (http://www.inkscape.org/) -->

<svg
   xmlns:dc="http://purl.org/dc/elements/1.1/"
   xmlns:cc="http://creativecommons.org/ns#"
   xmlns:rdf="http://www.w3.org/1999/02/22-rdf-syntax-ns#"
   xmlns:svg="http://www.w3.org/2000/svg"
   xmlns="http://www.w3.org/2000/svg"
   xmlns:sodipodi="http://sodipodi.sourceforge.net/DTD/sodipodi-0.dtd"
   xmlns:inkscape="http://www.inkscape.org/namespaces/inkscape"
   width="210mm"
   height="297mm"
   viewBox="0 0 210 297"
   version="1.1"
   id="svg8"
   inkscape:version="0.92.3 (2405546, 2018-03-11)"
   sodipodi:docname="play2.svg">
  <defs
     id="defs2" />
  <sodipodi:namedview
     id="base"
     pagecolor="#ffffff"
     bordercolor="#666666"
     borderopacity="1.0"
     inkscape:pageopacity="0.0"
     inkscape:pageshadow="2"
     inkscape:zoom="1"
     inkscape:cx="50.312998"
     inkscape:cy="703.88253"
     inkscape:document-units="mm"
     inkscape:current-layer="layer1"
     showgrid="false"
     showguides="true"
     inkscape:guide-bbox="true"
     inkscape:window-width="1920"
     inkscape:window-height="1005"
     inkscape:window-x="1591"
     inkscape:window-y="-9"
     inkscape:window-maximized="1">
    <sodipodi:guide
       position="65.015213,157.32"
       orientation="1,0"
       id="guide3721"
       inkscape:locked="false" />
    <sodipodi:guide
       position="47.624998,220.7381"
       orientation="1,0"
       id="guide3723"
       inkscape:locked="false" />
    <sodipodi:guide
       position="-89.802562,175.06154"
       orientation="0,1"
       id="guide3725"
       inkscape:locked="false" />
    <sodipodi:guide
       position="74.033659,125.08214"
       orientation="0,1"
       id="guide3727"
       inkscape:locked="false" />
    <sodipodi:guide
       position="-92.207987,225.04094"
       orientation="0,1"
       id="guide3729"
       inkscape:locked="false" />
  </sodipodi:namedview>
  <metadata
     id="metadata5">
    <rdf:RDF>
      <cc:Work
         rdf:about="">
        <dc:format>image/svg+xml</dc:format>
        <dc:type
           rdf:resource="http://purl.org/dc/dcmitype/StillImage" />
        <dc:title></dc:title>
      </cc:Work>
    </rdf:RDF>
  </metadata>
  <g
     inkscape:label="Layer 1"
     inkscape:groupmode="layer"
     id="layer1">
    <path
       style="fill:none;fill-rule:evenodd;stroke:#000000;stroke-width:0.20286457px;stroke-linecap:butt;stroke-linejoin:miter;stroke-opacity:1"
       d="m 47.624998,71.959061 85.583632,49.979399 -85.583632,49.9794 17.390215,-49.9794 z"
       id="path3719"
       inkscape:connector-curvature="0"
       sodipodi:nodetypes="ccccc" />
    <path
       style="fill:#000000;fill-opacity:1;stroke-width:0.71428573"
       d="M 180 271.9707 L 180 649.76758 L 181.98242 646.39844 C 181.98149 646.4009 181.89722 646.64068 181.89648 646.64258 C 181.4652 647.76122 181.93455 647.64968 184.92578 645.92773 C 236.03489 616.50583 501.38477 460.90222 501.02734 460.5625 C 500.11906 459.69925 182.14249 274.17545 181.94336 274.39258 C 181.93905 274.39727 182.10205 274.88072 182.14453 275.01953 L 180 271.9707 z "
       transform="scale(0.26458333)"
       id="path3731" />
    <path
       style="fill:#000000;fill-opacity:1;stroke-width:0.12626907"
       d="m 257.01187,604.09112 c 0.066,-0.0609 11.37053,-6.68903 25.12123,-14.72917 56.48285,-33.02594 163.29054,-95.69531 186.01639,-109.14503 1.39209,-0.82387 1.59212,-0.90612 2.11809,-0.87092 0.57024,0.0382 -1.36736,1.17655 -106.28858,62.44736 -58.77817,34.32467 -106.91838,62.40849 -106.97824,62.40849 -0.0599,0 -0.0549,-0.0498 0.0111,-0.11073 z"
       id="path4538"
       inkscape:connector-curvature="0"
       transform="scale(0.26458333)" />
    <path
       style="fill:#000000;fill-opacity:1;stroke-width:0.12626907"
       d=""
       id="path4540"
       inkscape:connector-curvature="0"
       transform="scale(0.26458333)" />
    <path
       style="fill:#000000;fill-opacity:1;stroke-width:0.12626907"
       d=""
       id="path4542"
       inkscape:connector-curvature="0"
       transform="scale(0.26458333)" />
    <path
       style="fill:#000000;fill-opacity:1;stroke-width:0.12626907"
       d=""
       id="path4544"
       inkscape:connector-curvature="0"
       transform="scale(0.26458333)" />
    <path
       style="fill:#000000;fill-opacity:1;stroke-width:0.12626907"
       d="m 233.58265,618.48226 c 0,-0.3389 5.18458,-3.38215 118.78762,-69.72588 110.35109,-64.4446 118.83247,-69.37419 119.41897,-69.40928 l 0.63135,-0.0378 -0.37881,0.24658 c -0.20834,0.13562 -53.33605,31.16988 -118.06158,68.96502 -64.72552,37.79513 -118.2936,69.07782 -119.04016,69.51707 l -1.35739,0.79864 z"
       id="path4546"
       inkscape:connector-curvature="0"
       transform="scale(0.26458333)" />
    <path
       style="fill:#000000;fill-opacity:1;stroke-width:0.12626907"
       d=""
       id="path4548"
       inkscape:connector-curvature="0"
       transform="scale(0.26458333)" />
    <path
       style="fill:#000000;fill-opacity:1;stroke-width:0.12626907"
       d="m 233.58265,618.48731 c 0,-0.34563 4.55686,-3.02061 118.78762,-69.73093 110.35109,-64.4446 118.83247,-69.37419 119.41897,-69.40928 l 0.63135,-0.0378 -0.37881,0.24656 c -0.35771,0.23282 -23.39819,13.68988 -174.44072,101.88415 -34.55037,20.17408 -63.08876,36.84363 -63.41864,37.04342 l -0.59977,0.36327 z"
       id="path4550"
       inkscape:connector-curvature="0"
       transform="scale(0.26458333)" />
    <path
       style="fill:#000000;fill-opacity:1;stroke-width:0.04464286"
       d="m 453.99049,489.23405 c 0.0246,-0.0249 1.21987,-0.73415 2.65625,-1.57604 6.00698,-3.52078 11.3943,-6.72473 12.71555,-7.56221 0.66115,-0.41907 0.98981,-0.66802 0.98981,-0.74975 0,-0.0806 -0.58197,-0.0123 -0.83841,0.0984 -0.12966,0.056 -0.24395,0.0936 -0.254,0.0835 -0.01,-0.0101 1.07037,-0.6601 2.40091,-1.44456 16.52135,-9.74063 27.32746,-16.17007 29.32766,-17.44942 0.13285,-0.085 0.3755,0.0774 -1.97545,-1.32204 -2.45073,-1.45886 -9.31519,-5.49636 -17.72321,-10.42434 -4.13728,-2.42488 -7.53218,-4.418 -7.54424,-4.42917 -0.012,-0.0112 0.16875,-0.0138 0.40179,-0.006 l 0.4237,0.0145 14.02621,8.19197 c 10.59022,6.18518 14.01323,8.20435 13.97322,8.24252 -0.0637,0.0607 -48.455,28.3188 -48.55484,28.35354 -0.0468,0.0163 -0.055,0.009 -0.0249,-0.0211 z"
       id="path4552"
       inkscape:connector-curvature="0"
       transform="scale(0.26458333)" />
    <path
       style="fill:#000000;fill-opacity:1;stroke-width:0.17857143"
       d=""
       id="path4554"
       inkscape:connector-curvature="0"
       transform="scale(0.26458333)" />
    <path
       style="fill:#000000;fill-opacity:1;stroke-width:0.17857143"
       d=""
       id="path4556"
       inkscape:connector-curvature="0"
       transform="scale(0.26458333)" />
    <path
       style="fill:#000000;fill-opacity:1;stroke-width:0.17857143"
       d="m 331.66493,561.19049 c 0.002,-0.24914 12.55057,-7.65505 51.47321,-30.37811 28.30892,-16.52675 66.77879,-38.98657 85.48861,-49.91071 18.70983,-10.92414 34.01786,-19.9385 34.01786,-20.03192 0,-0.0934 -37.80803,-22.25256 -84.01786,-49.24256 -46.20982,-26.99 -84.5,-49.35677 -85.08928,-49.70394 -1.03525,-0.60989 -1.05033,-0.62917 -0.44643,-0.57093 0.44457,0.0429 25.06016,14.32982 85.26786,49.48963 46.55357,27.18615 84.86463,49.56667 85.13569,49.73449 l 0.49284,0.30513 -12.72498,7.43185 c -6.99874,4.08752 -18.83212,11.00019 -26.29641,15.36149 -13.23703,7.73424 -131.03655,76.52722 -132.54464,77.40388 -0.69684,0.40507 -0.75873,0.41422 -0.75647,0.1117 z"
       id="path4560"
       inkscape:connector-curvature="0"
       transform="scale(0.26458333)" />
    <path
       style="fill:#000000;fill-opacity:1;stroke-width:0.17857143"
       d="m 471.06981,442.80507 c -1.45237,-0.84595 -2.60081,-1.57796 -2.55209,-1.62668 0.0846,-0.0846 5.46618,2.96826 5.46618,3.10085 0,0.18482 -0.50093,-0.0686 -2.91409,-1.47417 z"
       id="path4562"
       inkscape:connector-curvature="0"
       transform="scale(0.26458333)" />
    <path
       style="fill:#000000;fill-opacity:1;stroke-width:0.01578363"
       d="m 473.00059,444.05129 c -0.39065,-0.23004 -3.05395,-1.79017 -5.91845,-3.46693 l -5.20818,-3.04867 0.42046,-0.004 0.42046,-0.004 5.8689,3.42707 c 3.22789,1.88489 5.89731,3.44407 5.93203,3.46485 l 0.0631,0.0378 -0.42221,-0.0105 c -0.31566,-0.008 -0.42222,-0.006 -0.42222,0.008 0,0.0101 -0.005,0.0176 -0.0118,0.0168 -0.007,-8.4e-4 -0.33146,-0.18974 -0.7221,-0.41979 z m 0.97198,0.27925 c 0.008,0 0.0145,-0.0171 0.0145,-0.0381 0,-0.0287 -0.0243,-0.0554 -0.0986,-0.10838 -0.57811,-0.41204 -4.05555,-2.39506 -5.07328,-2.89305 -0.21306,-0.10425 -0.30499,-0.13549 -0.30499,-0.10364 0,0.0768 1.16243,0.81417 2.65954,1.68709 1.8874,1.10049 2.64722,1.50215 2.76738,1.46292 0.0116,-0.004 0.0275,-0.007 0.0355,-0.007 z"
       id="path4564"
       inkscape:connector-curvature="0"
       transform="scale(0.26458333)" />
    <path
       style="fill:#000000;fill-opacity:1;stroke-width:0.02232143"
       d="m 456.25129,434.2428 c -3.09375,-1.81068 -10.50167,-6.14295 -16.46205,-9.62726 l -10.83705,-6.3351 -0.006,-0.23066 c -0.004,-0.15053 0.002,-0.22799 0.0165,-0.22296 0.0263,0.009 33.70217,19.6715 33.69798,19.67557 -0.002,0.001 -0.17855,0.009 -0.39339,0.0176 l -0.39063,0.0149 z"
       id="path4566"
       inkscape:connector-curvature="0"
       transform="scale(0.26458333)" />
    <path
       style="fill:#000000;fill-opacity:1;stroke-width:0.02232143"
       d="m 428.27991,417.8884 c -1.39195,-0.81553 -28.83031,-16.84325 -34.91071,-20.39259 -3.5173,-2.05317 -6.42522,-3.75196 -6.46205,-3.77509 l -0.067,-0.0421 0.39063,-1.8e-4 0.39062,-1.9e-4 20.65461,12.06218 20.6546,12.06217 0.004,0.23674 c 0.002,0.13021 0.004,0.23631 0.004,0.23578 0,-5.4e-4 -0.29632,-0.17457 -0.65849,-0.38676 z"
       id="path4568"
       inkscape:connector-curvature="0"
       transform="scale(0.26458333)" />
    <path
       style="fill:#000000;fill-opacity:1;stroke-width:0.08928572"
       d="m 367.80665,382.53182 c -10.45982,-6.1107 -25.2337,-14.73601 -32.83084,-19.16736 -11.83605,-6.90386 -13.77155,-8.06079 -13.52351,-8.08357 0.24573,-0.0226 5.21337,2.84873 32.87548,19.002 17.92231,10.46572 32.70655,19.10535 32.85387,19.19918 l 0.26786,0.17061 -0.3125,-0.005 c -0.24873,-0.004 -4.19376,-2.27271 -19.33036,-11.11561 z"
       id="path4570"
       inkscape:connector-curvature="0"
       transform="scale(0.26458333)" />
    <path
       style="fill:#000000;fill-opacity:1;stroke-width:0.00789182"
       d="m 383.1665,391.54843 -3.66616,-2.14047 0.042,-0.002 0.042,-0.002 0.67263,0.39001 c 3.17404,1.84042 5.06786,2.92209 6.05485,3.45828 0.28643,0.15561 0.65082,0.34049 0.73394,0.37239 0.061,0.0234 0.0688,0.0244 0.23478,0.0299 0.0951,0.003 0.17148,0.003 0.17128,-10e-4 -5.4e-4,-0.0102 -0.24626,-0.16266 -0.55206,-0.34253 -0.43586,-0.25636 -2.77629,-1.62584 -4.80134,-2.80946 l -1.86953,-1.09271 0.0446,-0.002 0.0445,-0.002 3.65274,2.13316 3.65275,2.13315 -0.39384,0.002 c -0.25758,10e-4 -0.39217,0.005 -0.38901,0.01 0.003,0.004 0.002,0.008 -0.002,0.008 -0.004,-10e-5 -1.65615,-0.96339 -3.67254,-2.14065 z"
       id="path4572"
       inkscape:connector-curvature="0"
       transform="scale(0.26458333)" />
    <path
       style="fill:#000000;fill-opacity:1;stroke-width:0.00390625"
       d="m 389.69414,395.36249 c -1.56621,-0.91458 -2.84823,-1.66423 -2.84892,-1.66589 -0.004,-0.0107 0.005,-0.008 0.0305,0.007 0.0603,0.0376 1.07341,0.62983 3.88094,2.26895 0.98184,0.57323 1.78578,1.04275 1.78654,1.04338 0.0323,0.0269 -0.48418,-0.27291 -2.84906,-1.65385 z"
       id="path4574"
       inkscape:connector-curvature="0"
       transform="scale(0.26458333)" />
  </g>
</svg>
