<?xml version="1.0" encoding="UTF-8" standalone="no"?>
<!-- Created with Inkscape (http://www.inkscape.org/) -->

<svg
   xmlns:osb="http://www.openswatchbook.org/uri/2009/osb"
   xmlns:dc="http://purl.org/dc/elements/1.1/"
   xmlns:cc="http://creativecommons.org/ns#"
   xmlns:rdf="http://www.w3.org/1999/02/22-rdf-syntax-ns#"
   xmlns:svg="http://www.w3.org/2000/svg"
   xmlns="http://www.w3.org/2000/svg"
   xmlns:sodipodi="http://sodipodi.sourceforge.net/DTD/sodipodi-0.dtd"
   xmlns:inkscape="http://www.inkscape.org/namespaces/inkscape"
   width="210mm"
   height="297mm"
   viewBox="0 0 210 297"
   version="1.1"
   id="svg8"
   inkscape:version="0.92.3 (2405546, 2018-03-11)"
   sodipodi:docname="previous.svg">
  <defs
     id="defs2">
    <linearGradient
       id="linearGradient6048"
       osb:paint="solid">
      <stop
         style="stop-color:#000000;stop-opacity:1;"
         offset="0"
         id="stop6046" />
    </linearGradient>
  </defs>
  <sodipodi:namedview
     id="base"
     pagecolor="#ffffff"
     bordercolor="#666666"
     borderopacity="1.0"
     inkscape:pageopacity="0.0"
     inkscape:pageshadow="2"
     inkscape:zoom="0.5"
     inkscape:cx="-6.3296135"
     inkscape:cy="666.12145"
     inkscape:document-units="mm"
     inkscape:current-layer="layer1"
     showgrid="false"
     showguides="true"
     inkscape:guide-bbox="true"
     inkscape:window-width="1920"
     inkscape:window-height="1005"
     inkscape:window-x="1591"
     inkscape:window-y="-9"
     inkscape:window-maximized="1">
    <sodipodi:guide
       position="65.015213,157.32"
       orientation="1,0"
       id="guide3721"
       inkscape:locked="false" />
    <sodipodi:guide
       position="47.624998,220.7381"
       orientation="1,0"
       id="guide3723"
       inkscape:locked="false" />
    <sodipodi:guide
       position="-89.802562,175.06154"
       orientation="0,1"
       id="guide3725"
       inkscape:locked="false" />
    <sodipodi:guide
       position="74.033659,125.08214"
       orientation="0,1"
       id="guide3727"
       inkscape:locked="false" />
    <sodipodi:guide
       position="-92.207987,225.04094"
       orientation="0,1"
       id="guide3729"
       inkscape:locked="false" />
  </sodipodi:namedview>
  <metadata
     id="metadata5">
    <rdf:RDF>
      <cc:Work
         rdf:about="">
        <dc:format>image/svg+xml</dc:format>
        <dc:type
           rdf:resource="http://purl.org/dc/dcmitype/StillImage" />
        <dc:title></dc:title>
      </cc:Work>
    </rdf:RDF>
  </metadata>
  <g
     inkscape:label="Layer 1"
     inkscape:groupmode="layer"
     id="layer1">
    <path
       style="fill:none;fill-rule:evenodd;stroke:#000000;stroke-width:0.20286457px;stroke-linecap:butt;stroke-linejoin:miter;stroke-opacity:1"
       d="m 195.04269,171.91786 -85.58364,-49.9794 85.58364,-49.979399 0,49.979399 z"
       id="path3719"
       inkscape:connector-curvature="0"
       sodipodi:nodetypes="ccccc" />
    <path
       style="fill:#000000;fill-opacity:1;stroke-width:0.03340869"
       d=""
       id="path4540"
       inkscape:connector-curvature="0" />
    <path
       style="fill:#000000;fill-opacity:1;stroke-width:0.03340869"
       d=""
       id="path4542"
       inkscape:connector-curvature="0" />
    <path
       style="fill:#000000;fill-opacity:1;stroke-width:0.03340869"
       d=""
       id="path4544"
       inkscape:connector-curvature="0" />
    <path
       style="fill:#000000;fill-opacity:1;stroke-width:0.03340869"
       d=""
       id="path4548"
       inkscape:connector-curvature="0" />
    <path
       style="fill:#000000;fill-opacity:1;stroke-width:0.04724703"
       d=""
       id="path4554"
       inkscape:connector-curvature="0" />
    <path
       style="fill:#000000;fill-opacity:1;stroke-width:0.04724703"
       d=""
       id="path4556"
       inkscape:connector-curvature="0" />
    <path
       style="fill:#000000;fill-opacity:1;stroke-width:0.00208804"
       d="m 141.28822,140.27973 0.97,0.56634 -0.0111,5.2e-4 -0.0111,5.3e-4 -0.17797,-0.10319 c -0.83979,-0.48694 -1.34087,-0.77313 -1.60201,-0.915 -0.0758,-0.0412 -0.17219,-0.0901 -0.19419,-0.0985 -0.0161,-0.006 -0.0182,-0.006 -0.0621,-0.008 -0.0252,-7.9e-4 -0.0454,-7.9e-4 -0.0453,2.7e-4 1.5e-4,0.003 0.0652,0.043 0.14607,0.0906 0.11532,0.0678 0.73456,0.43017 1.27035,0.74334 l 0.49465,0.28911 -0.0118,5.3e-4 -0.0118,5.3e-4 -0.96645,-0.5644 -0.96646,-0.56439 0.1042,-5.3e-4 c 0.0682,-2.7e-4 0.10377,-0.001 0.10293,-0.003 -7.9e-4,-0.001 -5.3e-4,-0.002 5.3e-4,-0.002 0.001,3e-5 0.43819,0.2549 0.97169,0.56638 z"
       id="path4572"
       inkscape:connector-curvature="0" />
    <path
       style="fill:#000000;fill-opacity:1;stroke-width:0.00103353"
       d="m 139.56111,139.2706 c 0.41439,0.24198 0.75359,0.44032 0.75378,0.44076 0.001,0.003 -0.001,0.002 -0.008,-0.002 -0.016,-0.01 -0.28401,-0.16664 -1.02683,-0.60033 -0.25978,-0.15166 -0.47249,-0.27589 -0.47269,-0.27606 -0.008,-0.007 0.1281,0.0722 0.75381,0.43758 z"
       id="path4574"
       inkscape:connector-curvature="0" />
    <path
       style="fill:none;fill-rule:evenodd;stroke:#000000;stroke-width:0.20286459px;stroke-linecap:butt;stroke-linejoin:miter;stroke-opacity:1"
       d="M 109.36099,171.91786 23.777355,121.93846 109.36099,71.959061 v 49.979399 z"
       id="path3719-6"
       inkscape:connector-curvature="0"
       sodipodi:nodetypes="ccccc" />
    <path
       style="fill:#000000;fill-opacity:1;stroke-width:0.5"
       d="M 338.59323,605.32271 C 298.30573,581.78362 226.17618,539.65194 178.30535,511.69676 L 91.26747,460.86916 196.55185,399.3865 c 57.90641,-33.81546 130.20471,-76.03483 160.66288,-93.82082 l 55.3785,-32.33816 v 187.46316 c 0,103.10474 -0.16875,187.45579 -0.375,187.44677 -0.20625,-0.009 -33.3375,-19.27565 -73.625,-42.81474 z"
       id="path6107"
       inkscape:connector-curvature="0"
       transform="scale(0.26458333)" />
    <path
       style="fill:#000000;fill-opacity:1;stroke-width:0.5"
       d="m 637.66395,590.83888 c -54.2736,-31.69556 -99.0486,-57.95483 -99.5,-58.35395 -0.99866,-0.88298 -8.55733,-5.35713 -9.27091,-5.48766 -0.28092,-0.0514 -0.94738,-0.4794 -1.48101,-0.95114 -0.53364,-0.47174 -1.16117,-0.73971 -1.39452,-0.59549 -0.23336,0.14422 -0.42428,0.0502 -0.42428,-0.20897 0,-0.25916 -0.43522,-0.58501 -0.96716,-0.72411 -2.05482,-0.53735 -109.43193,-63.62824 -108.86942,-63.96772 0.32262,-0.19469 72.58658,-42.41081 160.58658,-93.81359 l 160,-93.45959 0.1263,93.97927 c 0.0695,51.6886 0.0695,136.10647 0,187.59525 l -0.1263,93.61598 z"
       id="path6109"
       inkscape:connector-curvature="0"
       transform="scale(0.26458333)" />
  </g>
</svg>
